<?xml version="1.0" encoding="UTF-8"?>
<svg width="1200pt" height="1200pt" version="1.1" viewBox="0 0 1200 1200" xmlns="http://www.w3.org/2000/svg">
 <path d="m386.25 1059.4c20.625-20.625 31.875-48.75 33.75-76.875 9.375-264.38-73.125-339.38-108.75-358.12-7.5-3.75-16.875-5.625-26.25-5.625h-108.75c-9.375 0-18.75 1.875-26.25 5.625-35.625 18.75-118.12 91.875-108.75 358.12 1.875 28.125 13.125 56.25 33.75 76.875 30 30 80.625 63.75 155.62 63.75s125.62-33.75 155.62-63.75zm-230.62-11.25c0-18.75 16.875-35.625 35.625-35.625h78.75c18.75 0 35.625 16.875 35.625 35.625s-16.875 35.625-35.625 35.625h-78.75c-18.75 0-35.625-16.875-35.625-35.625z"/>
 <path d="m163.12 478.12-5.625 133.12c5.625-1.875 13.125-3.75 18.75-3.75h108.75c7.5 0 13.125 1.875 18.75 3.75l-5.625-133.12-15-7.5v-24.375l13.125-11.25-3.75-71.25-18.75-37.5 9.375-41.25h5.625l-1.875-26.25-15-13.125v-33.75l7.5-13.125v-24.375l3.75-3.75-1.875-26.25-50.625-67.5-50.625 67.5-1.875 28.125 3.75 3.75v24.375l7.5 13.125v33.75l-15 13.125-1.875 26.25h5.625l9.375 41.25-18.75 37.5-3.75 71.25 13.125 11.25v24.375zm58.125-328.12c0-5.625 3.75-9.375 9.375-9.375s9.375 3.75 9.375 9.375v397.5h-16.875v-397.5z"/>
 <path d="m1132.5 495c-24.375-22.5-88.125-24.375-103.12 11.25-1.875 3.75-5.625 45-1.875 45-1.875 0-26.25 9.375-26.25 9.375-3.75-138.75-131.25-271.88-131.25-271.88-142.5-31.875-367.5-45-367.5-45s-86.25 3.75-185.62 15l1.875 41.25v3.75c60-9.375 120-13.125 176.25-13.125h7.5c95.625 0 200.62 9.375 301.88 39.375 5.625 5.625 99.375 80.625 123.75 211.88 0 1.875 0 1.875-1.875 1.875h-596.25l1.875 58.125c13.125 7.5 26.25 18.75 41.25 37.5 1.875-9.375 7.5-15 16.875-15s16.875 7.5 16.875 16.875v54.375s0 1.875 1.875 1.875c22.5 50.625 35.625 116.25 39.375 193.12h322.5c9.375 0 16.875 7.5 16.875 16.875v33.75c0 9.375-7.5 16.875-16.875 16.875h-322.5v24.375c0 3.75 0 9.375-1.875 13.125h635.62c11.25 0 18.75-9.375 18.75-18.75v-403.12c0 1.875 43.125-11.25 46.875-15 24.375-20.625 1.875-48.75-15-63.75zm-650.62 285c0 9.375-7.5 16.875-16.875 16.875s-16.875-7.5-16.875-16.875v-135c0-9.375 7.5-16.875 16.875-16.875s16.875 7.5 16.875 16.875zm75 0c0 9.375-7.5 16.875-16.875 16.875s-16.875-7.5-16.875-16.875v-135c0-9.375 7.5-16.875 16.875-16.875s16.875 7.5 16.875 16.875zm75 0c0 9.375-7.5 16.875-16.875 16.875s-16.875-7.5-16.875-16.875v-135c0-9.375 7.5-16.875 16.875-16.875s16.875 7.5 16.875 16.875zm73.125 0c0 9.375-7.5 16.875-16.875 16.875s-16.875-7.5-16.875-16.875v-135c0-9.375 7.5-16.875 16.875-16.875s16.875 7.5 16.875 16.875zm91.875-99.375c0-41.25 105-65.625 148.12-65.625 41.25 0 76.875 22.5 76.875 65.625 0 41.25-33.75 65.625-76.875 65.625-43.125-1.875-148.12-24.375-148.12-65.625zm245.62 262.5c0 9.375-7.5 16.875-16.875 16.875h-180c-9.375 0-16.875-7.5-16.875-16.875v-33.75c0-9.375 7.5-16.875 16.875-16.875h180c9.375 0 16.875 7.5 16.875 16.875z"/>
 <path d="m770.62 1023.8v61.875c0 20.625 16.875 37.5 37.5 37.5h247.5c20.625 0 37.5-16.875 37.5-37.5v-61.875z"/>
</svg>
